<?xml version="1.0" standalone="no"?>
<!DOCTYPE svg PUBLIC "-//W3C//DTD SVG 20010904//EN"
 "http://www.w3.org/TR/2001/REC-SVG-20010904/DTD/svg10.dtd">
<svg version="1.0" xmlns="http://www.w3.org/2000/svg"
 width="1000.000000pt" height="1000.000000pt" viewBox="0 0 1000.000000 1000.000000"
 preserveAspectRatio="xMidYMid meet">
<metadata>
Created by potrace 1.14, written by Peter Selinger 2001-2017
</metadata>
<g transform="translate(0.000000,1000.000000) scale(0.100000,-0.100000)"
fill="#000000" stroke="none">
<path d="M4107 5030 c-143 -43 -202 -267 -106 -400 106 -146 329 -77 369 113
11 59 1 147 -24 195 -41 79 -146 120 -239 92z m129 -65 c66 -43 89 -192 43
-281 -67 -129 -216 -98 -250 52 -30 135 43 263 144 250 21 -2 49 -12 63 -21z"/>
<path d="M5325 5028 c-128 -45 -187 -219 -122 -361 36 -80 87 -112 178 -112
59 0 73 4 110 30 24 17 55 53 73 85 26 46 30 65 30 125 0 38 -5 87 -13 108
-36 106 -151 162 -256 125z m125 -60 c51 -35 75 -90 75 -173 -1 -118 -54 -190
-140 -190 -86 0 -139 72 -139 190 0 56 5 79 24 115 42 76 118 100 180 58z"/>
<path d="M7486 5025 c-50 -17 -100 -66 -127 -124 -30 -63 -31 -170 -1 -227 59
-116 198 -156 315 -92 34 19 41 28 39 48 -2 14 -5 26 -7 28 -1 1 -25 -9 -53
-24 -91 -47 -168 -30 -220 48 -37 57 -39 152 -2 218 47 85 136 108 218 58 32
-20 33 -20 47 -2 22 29 19 33 -37 59 -59 28 -114 31 -172 10z"/>
<path d="M2314 4984 c3 -26 6 -132 6 -235 l0 -189 33 0 32 0 -3 90 -3 90 38 0
c51 1 113 30 146 69 21 25 27 43 27 77 0 101 -58 143 -199 144 l-84 0 7 -46z
m155 -15 c18 -6 38 -24 47 -41 32 -62 -11 -127 -90 -135 l-46 -6 0 97 0 96 29
0 c15 0 42 -5 60 -11z"/>
<path d="M2659 4998 c12 -18 44 -77 71 -130 l50 -98 0 -105 0 -105 35 0 35 0
0 106 0 106 70 125 c39 69 70 127 70 130 0 2 -14 3 -31 1 -28 -3 -36 -12 -84
-102 l-53 -99 -51 101 -51 102 -41 0 -41 0 21 -32z"/>
<path d="M3000 5005 c0 -23 3 -24 73 -27 l72 -3 3 -207 2 -208 33 0 32 0 0
207 0 208 78 3 c74 3 77 4 77 27 l0 25 -185 0 -185 0 0 -25z"/>
<path d="M3454 4984 c3 -26 6 -132 6 -235 l0 -189 33 0 32 0 -3 110 -3 110
125 0 126 0 0 -110 0 -110 35 0 35 0 0 235 0 235 -35 0 -35 0 0 -100 0 -100
-125 0 -125 0 0 100 0 100 -36 0 -37 0 7 -46z"/>
<path d="M4480 4795 l0 -235 33 0 32 0 -3 172 c-2 152 -1 171 12 155 8 -10 76
-88 152 -173 87 -97 145 -154 157 -154 15 0 18 5 13 23 -3 12 -6 118 -6 235
l0 212 -28 0 -28 0 3 -172 4 -173 -33 40 c-120 143 -273 305 -289 305 -18 0
-19 -12 -19 -235z"/>
<path d="M5704 4984 c3 -26 6 -132 6 -235 l0 -189 28 0 27 0 -3 173 -3 172 43
-50 c141 -162 263 -290 280 -293 18 -3 18 6 16 230 l-3 233 -30 3 -31 3 4
-173 3 -173 -28 35 c-15 19 -83 97 -151 172 -139 156 -170 173 -158 92z"/>
<path d="M6440 4795 l0 -235 35 0 35 0 0 110 0 110 125 0 125 0 0 -110 0 -110
35 0 35 0 -2 233 -3 232 -35 3 -35 3 3 -101 4 -100 -126 0 -126 0 0 100 0 100
-35 0 -35 0 0 -235z"/>
<path d="M6984 4999 c3 -17 6 -123 6 -235 l0 -204 33 0 33 0 -4 88 -4 89 56 6
c75 8 123 38 148 95 23 51 19 96 -14 137 -32 41 -76 55 -174 55 l-86 0 6 -31z
m161 -33 c101 -43 53 -176 -64 -176 l-31 0 0 95 0 95 30 0 c17 0 46 -6 65 -14z"/>
<path d="M4448 2083 c-1 -4 -2 -65 0 -135 3 -104 6 -128 18 -128 11 0 14 15
14 63 0 67 10 87 46 87 28 0 34 -17 34 -91 0 -46 3 -59 15 -59 12 0 15 15 15
74 0 98 -20 121 -84 96 -24 -9 -25 -8 -28 42 -3 45 -20 74 -30 51z"/>
<path d="M6677 2083 c-4 -3 -7 -64 -7 -135 0 -124 1 -128 21 -128 15 0 19 4
15 16 -3 9 -6 69 -6 135 0 109 -5 131 -23 112z"/>
<path d="M2920 2050 c0 -13 5 -20 13 -17 6 2 12 10 12 17 0 7 -6 15 -12 18 -8
2 -13 -5 -13 -18z"/>
<path d="M2327 2054 c-13 -13 5 -24 39 -24 l34 0 0 -105 c0 -87 3 -105 15
-105 12 0 15 18 15 105 l0 105 40 0 c29 0 40 4 40 15 0 12 -16 15 -88 15 -49
0 -92 -3 -95 -6z"/>
<path d="M3950 1940 c0 -108 2 -120 18 -120 14 0 17 7 14 44 l-4 43 41 7 c110
17 88 146 -25 146 l-44 0 0 -120z m100 70 c15 -28 3 -59 -27 -71 -35 -13 -43
-4 -43 47 0 42 1 44 30 44 19 0 33 -7 40 -20z"/>
<path d="M5670 1940 c0 -108 2 -120 18 -120 14 0 17 8 14 55 l-4 55 66 0 66 0
0 -55 c0 -46 3 -55 18 -55 15 0 17 11 14 120 -3 96 -6 120 -18 120 -10 0 -14
-13 -14 -50 l0 -50 -65 0 -65 0 0 50 c0 38 -4 50 -15 50 -12 0 -15 -20 -15
-120z"/>
<path d="M5940 1940 c0 -108 2 -120 18 -120 14 0 17 7 14 44 l-4 43 41 7 c110
17 88 146 -25 146 l-44 0 0 -120z m100 70 c15 -28 3 -59 -27 -71 -35 -13 -43
-4 -43 47 0 42 1 44 30 44 19 0 33 -7 40 -20z"/>
<path d="M6183 2045 c-54 -23 -80 -107 -52 -168 24 -52 120 -74 164 -37 20 17
8 32 -15 20 -30 -16 -78 -12 -100 10 -58 58 -23 160 54 160 19 0 38 -4 41 -10
9 -14 25 -12 25 3 0 15 -41 37 -68 37 -9 -1 -31 -7 -49 -15z"/>
<path d="M6503 2045 c-54 -23 -80 -107 -52 -168 24 -52 120 -74 164 -37 20 17
8 32 -15 20 -30 -16 -78 -12 -100 10 -58 58 -23 160 54 160 19 0 38 -4 41 -10
9 -14 25 -12 25 3 0 15 -41 37 -68 37 -9 -1 -31 -7 -49 -15z"/>
<path d="M4320 2010 c0 -11 -7 -20 -15 -20 -8 0 -15 -4 -15 -10 0 -5 7 -10 15
-10 11 0 15 -16 17 -66 3 -74 17 -92 61 -80 36 9 34 26 -3 26 l-30 0 0 60 c0
53 2 60 19 60 11 0 23 5 26 10 4 6 -5 10 -19 10 -19 0 -26 5 -26 20 0 11 -7
20 -15 20 -8 0 -15 -9 -15 -20z"/>
<path d="M7140 2010 c0 -11 -7 -20 -15 -20 -8 0 -15 -4 -15 -10 0 -5 7 -10 15
-10 11 0 15 -16 17 -66 3 -74 17 -92 61 -80 36 9 34 26 -3 26 l-30 0 0 60 c0
53 2 60 19 60 11 0 23 5 26 10 4 6 -5 10 -19 10 -19 0 -26 5 -26 20 0 11 -7
20 -15 20 -8 0 -15 -9 -15 -20z"/>
<path d="M2550 1987 c-48 -24 -57 -122 -13 -154 69 -51 160 45 119 125 -22 43
-58 53 -106 29z m78 -62 c5 -42 -6 -73 -29 -80 -51 -17 -81 73 -38 116 18 18
23 19 42 6 12 -8 23 -27 25 -42z"/>
<path d="M2727 1993 c-4 -3 -7 -64 -7 -135 0 -107 2 -128 15 -128 11 0 15 12
15 45 0 43 1 45 30 45 47 0 80 39 80 93 0 67 -42 103 -91 77 -13 -7 -19 -7
-19 0 0 11 -13 13 -23 3z m93 -42 c25 -47 -2 -111 -46 -111 -23 0 -24 3 -24
58 0 32 3 62 7 65 13 14 53 6 63 -12z"/>
<path d="M2920 1910 c0 -73 3 -90 15 -90 12 0 15 17 15 90 0 73 -3 90 -15 90
-12 0 -15 -17 -15 -90z"/>
<path d="M3037 1980 c-35 -28 -45 -81 -24 -126 19 -39 54 -52 97 -34 42 18 37
31 -9 24 -33 -5 -41 -3 -55 17 -21 31 -20 72 2 92 21 19 53 22 69 6 7 -7 12
-6 16 5 7 17 -20 36 -51 36 -11 0 -31 -9 -45 -20z"/>
<path d="M3198 1989 c-11 -6 -18 -22 -18 -39 0 -24 7 -33 40 -50 59 -30 46
-73 -15 -50 -20 7 -25 6 -25 -5 0 -18 41 -29 75 -21 29 8 44 49 24 72 -7 8
-25 22 -41 30 -30 16 -37 41 -14 50 8 3 24 1 35 -6 17 -8 21 -8 21 4 0 25 -50
34 -82 15z"/>
<path d="M3470 1987 c-48 -24 -57 -122 -13 -154 69 -51 160 45 119 125 -22 43
-58 53 -106 29z m78 -62 c5 -42 -6 -73 -29 -80 -51 -17 -81 73 -38 116 18 18
23 19 42 6 12 -8 23 -27 25 -42z"/>
<path d="M3653 1993 c-9 -3 -13 -30 -13 -89 0 -68 3 -84 15 -84 12 0 15 14 15
65 0 60 2 66 24 77 45 20 56 6 56 -72 0 -60 2 -70 18 -70 15 0 16 9 12 81 -6
96 -18 112 -72 91 -17 -6 -34 -8 -37 -3 -4 4 -12 6 -18 4z"/>
<path d="M4120 1992 c0 -5 13 -44 29 -88 32 -89 29 -119 -17 -139 -22 -10 -25
-26 -5 -32 24 -8 63 47 102 144 23 56 41 106 41 112 0 14 -30 2 -31 -13 0 -6
-10 -33 -23 -61 l-22 -50 -24 68 c-13 37 -30 67 -37 67 -7 0 -13 -4 -13 -8z"/>
<path d="M4669 1971 c-21 -21 -29 -39 -29 -64 0 -92 106 -121 148 -40 20 36
14 82 -13 108 -33 33 -70 32 -106 -4z m74 -4 c10 -6 20 -28 23 -48 5 -29 2
-41 -15 -58 -11 -11 -25 -21 -31 -21 -21 0 -50 41 -50 70 0 28 29 70 48 70 5
0 16 -6 25 -13z"/>
<path d="M4863 1993 c-9 -3 -13 -30 -13 -89 0 -74 2 -84 18 -84 16 0 18 7 14
58 -5 65 11 92 53 92 29 0 35 -16 35 -91 0 -46 3 -59 15 -59 24 0 21 130 -4
161 -17 21 -22 22 -57 11 -21 -6 -41 -8 -44 -3 -3 4 -11 6 -17 4z"/>
<path d="M5190 1987 c-13 -7 -30 -28 -38 -48 -12 -31 -11 -41 2 -72 27 -65
106 -62 139 5 16 32 17 43 7 73 -17 53 -58 68 -110 42z m78 -72 c3 -36 -18
-75 -41 -75 -24 0 -47 34 -47 71 0 81 81 85 88 4z"/>
<path d="M5367 1993 c-4 -3 -7 -44 -7 -90 0 -67 3 -83 15 -83 12 0 15 14 15
64 0 70 12 90 52 84 21 -3 23 -8 26 -75 2 -56 6 -73 17 -73 12 0 15 17 15 80
0 76 -1 81 -25 92 -19 8 -32 8 -52 -1 -19 -9 -29 -9 -31 -2 -4 12 -15 14 -25
4z"/>
<path d="M6777 1993 c-4 -3 -7 -37 -7 -74 0 -91 31 -121 93 -88 16 9 22 9 25
0 2 -6 9 -11 16 -11 9 0 11 22 8 88 -5 94 -5 97 -21 87 -6 -3 -11 -35 -11 -70
0 -65 -6 -75 -50 -75 -24 0 -30 19 -30 91 0 55 -7 69 -23 52z"/>
<path d="M6988 1989 c-11 -6 -18 -22 -18 -39 0 -24 7 -33 40 -50 59 -30 46
-73 -15 -50 -20 7 -25 6 -25 -5 0 -18 41 -29 75 -21 29 8 44 49 24 72 -7 8
-25 22 -41 30 -30 16 -37 41 -14 50 8 3 24 1 35 -6 17 -8 21 -8 21 4 0 25 -50
34 -82 15z"/>
<path d="M7297 1993 c-9 -2 -24 -17 -32 -33 -34 -66 -3 -140 60 -140 43 0 65
9 65 25 0 10 -7 11 -36 2 -33 -10 -38 -9 -55 12 -33 40 -25 51 37 51 l57 0 -7
33 c-9 48 -37 64 -89 50z m47 -29 c25 -24 19 -34 -19 -34 -24 0 -35 5 -35 15
0 11 23 32 37 35 1 0 9 -7 17 -16z"/>
<path d="M7453 1993 c-9 -3 -13 -30 -13 -89 0 -75 2 -84 19 -84 16 0 17 6 14
48 -4 38 -1 52 17 75 12 15 29 26 37 25 22 -4 29 20 8 28 -8 4 -24 -1 -34 -10
-21 -20 -29 -20 -33 -3 -2 8 -9 12 -15 10z"/>
<path d="M7592 1984 c-32 -22 -25 -53 18 -82 57 -38 39 -73 -24 -47 -14 6 -18
5 -14 -6 7 -23 53 -34 83 -21 19 9 25 19 25 42 0 25 -7 33 -40 50 -22 11 -40
27 -40 34 0 19 28 28 50 16 13 -7 19 -6 23 4 11 28 -46 35 -81 10z"/>
</g>
</svg>
